<svg
                    width="21"
                    height="21"
                    viewBox="0 0 21 21"
                    fill="none"
                    xmlns="http://www.w3.org/2000/svg"
                  >
                    <g clip-path="url(#clip0_387_916)">
                      <path
                        d="M5.33529 3.43018C5.42369 3.43018 5.50848 3.39506 5.57099 3.33254C5.6335 3.27003 5.66862 3.18525 5.66862 3.09684V1.76351C5.66862 1.6751 5.6335 1.59032 5.57099 1.52781C5.50848 1.46529 5.42369 1.43018 5.33529 1.43018C5.24688 1.43018 5.1621 1.46529 5.09958 1.52781C5.03707 1.59032 5.00195 1.6751 5.00195 1.76351V3.09684C5.00195 3.18525 5.03707 3.27003 5.09958 3.33254C5.1621 3.39506 5.24688 3.43018 5.33529 3.43018Z"
                        fill="white"
                      />
                      <path
                        d="M9.33529 3.43018C9.42369 3.43018 9.50848 3.39506 9.57099 3.33254C9.6335 3.27003 9.66862 3.18525 9.66862 3.09684V1.76351C9.66862 1.6751 9.6335 1.59032 9.57099 1.52781C9.50848 1.46529 9.42369 1.43018 9.33529 1.43018C9.24688 1.43018 9.1621 1.46529 9.09958 1.52781C9.03707 1.59032 9.00195 1.6751 9.00195 1.76351V3.09684C9.00195 3.18525 9.03707 3.27003 9.09958 3.33254C9.1621 3.39506 9.24688 3.43018 9.33529 3.43018Z"
                        fill="white"
                      />
                      <path
                        d="M17.3353 3.43018C17.4237 3.43018 17.5085 3.39506 17.571 3.33254C17.6335 3.27003 17.6686 3.18525 17.6686 3.09684V1.76351C17.6686 1.6751 17.6335 1.59032 17.571 1.52781C17.5085 1.46529 17.4237 1.43018 17.3353 1.43018C17.2469 1.43018 17.1621 1.46529 17.0996 1.52781C17.0371 1.59032 17.002 1.6751 17.002 1.76351V3.09684C17.002 3.18525 17.0371 3.27003 17.0996 3.33254C17.1621 3.39506 17.2469 3.43018 17.3353 3.43018Z"
                        fill="white"
                      />
                      <path
                        d="M13.3353 3.43018C13.4237 3.43018 13.5085 3.39506 13.571 3.33254C13.6335 3.27003 13.6686 3.18525 13.6686 3.09684V1.76351C13.6686 1.6751 13.6335 1.59032 13.571 1.52781C13.5085 1.46529 13.4237 1.43018 13.3353 1.43018C13.2469 1.43018 13.1621 1.46529 13.0996 1.52781C13.0371 1.59032 13.002 1.6751 13.002 1.76351V3.09684C13.002 3.18525 13.0371 3.27003 13.0996 3.33254C13.1621 3.39506 13.2469 3.43018 13.3353 3.43018Z"
                        fill="white"
                      />
                      <path
                        d="M12.669 10.7134L11.0293 12.763H12.669V10.7134Z"
                        fill="white"
                      />
                      <path
                        d="M2.00195 18.4302C2.00248 18.872 2.17825 19.2957 2.49069 19.6081C2.80314 19.9205 3.22675 20.0963 3.66862 20.0968H19.002C19.4438 20.0963 19.8674 19.9205 20.1799 19.6081C20.4923 19.2957 20.6681 18.872 20.6686 18.4302V5.43018H2.00195V18.4302ZM15.002 14.7635V13.0968C15.002 13.0084 15.0371 12.9237 15.0996 12.8611C15.1621 12.7986 15.2469 12.7635 15.3353 12.7635C15.4237 12.7635 15.5085 12.7986 15.571 12.8611C15.6335 12.9237 15.6686 13.0084 15.6686 13.0968V13.8248C15.7754 13.7854 15.8881 13.7646 16.002 13.7635C16.2672 13.7635 16.5215 13.8689 16.7091 14.0564C16.8966 14.2439 17.002 14.4983 17.002 14.7635V15.0968C17.002 15.1852 16.9668 15.27 16.9043 15.3325C16.8418 15.3951 16.757 15.4302 16.6686 15.4302C16.5802 15.4302 16.4954 15.3951 16.4329 15.3325C16.3704 15.27 16.3353 15.1852 16.3353 15.0968V14.7635C16.3353 14.6751 16.3002 14.5903 16.2377 14.5278C16.1751 14.4653 16.0904 14.4302 16.002 14.4302C15.9135 14.4302 15.8288 14.4653 15.7663 14.5278C15.7037 14.5903 15.6686 14.6751 15.6686 14.7635V15.0968C15.6686 15.1852 15.6335 15.27 15.571 15.3325C15.5085 15.3951 15.4237 15.4302 15.3353 15.4302C15.2469 15.4302 15.1621 15.3951 15.0996 15.3325C15.0371 15.27 15.002 15.1852 15.002 15.0968V14.7635ZM10.075 12.8885L12.7416 9.55518C12.7848 9.50122 12.8436 9.462 12.91 9.44294C12.9764 9.42389 13.0471 9.42595 13.1123 9.44882C13.1775 9.4717 13.234 9.51427 13.2739 9.57065C13.3139 9.62702 13.3353 9.69442 13.3353 9.76351V12.7635H14.002C14.0904 12.7635 14.1751 12.7986 14.2377 12.8611C14.3002 12.9237 14.3353 13.0084 14.3353 13.0968C14.3353 13.1852 14.3002 13.27 14.2377 13.3325C14.1751 13.3951 14.0904 13.4302 14.002 13.4302H13.3353V15.0968C13.3353 15.1852 13.3002 15.27 13.2377 15.3325C13.1751 15.3951 13.0904 15.4302 13.002 15.4302C12.9135 15.4302 12.8288 15.3951 12.7663 15.3325C12.7037 15.27 12.6686 15.1852 12.6686 15.0968V13.4302H10.3353C10.2725 13.4302 10.2109 13.4125 10.1578 13.379C10.1046 13.3456 10.0619 13.2978 10.0347 13.2412C10.0075 13.1846 9.99686 13.1215 10.004 13.0591C10.0111 12.9967 10.0357 12.9375 10.075 12.8885ZM7.60195 9.43018C8.27062 9.43018 9.53529 9.81851 9.53529 11.2872C9.53529 12.6788 8.07829 14.0135 7.08095 14.7635H10.002C10.0904 14.7635 10.1751 14.7986 10.2377 14.8611C10.3002 14.9237 10.3353 15.0084 10.3353 15.0968C10.3353 15.1852 10.3002 15.27 10.2377 15.3325C10.1751 15.3951 10.0904 15.4302 10.002 15.4302H6.00195C5.92897 15.4302 5.858 15.4062 5.79995 15.362C5.74189 15.3178 5.69996 15.2557 5.68058 15.1854C5.6612 15.115 5.66545 15.0402 5.69267 14.9725C5.7199 14.9048 5.76859 14.8479 5.83129 14.8105C6.67595 14.3068 8.86862 12.6918 8.86862 11.2872C8.86862 10.1405 7.73029 10.0978 7.60195 10.0968C7.4386 10.0838 7.27434 10.1052 7.11973 10.1595C6.96513 10.2138 6.82361 10.2999 6.70429 10.4122C6.58497 10.5245 6.49049 10.6606 6.42694 10.8116C6.36338 10.9627 6.33216 11.1253 6.33529 11.2892C6.3345 11.3771 6.29903 11.4611 6.2366 11.5229C6.17417 11.5848 6.08984 11.6195 6.00195 11.6195C5.91384 11.6191 5.82948 11.5838 5.76733 11.5213C5.70518 11.4588 5.67029 11.3743 5.67029 11.2862C5.66518 11.0346 5.71225 10.7846 5.80852 10.5521C5.90479 10.3196 6.04818 10.1095 6.22965 9.93514C6.41113 9.76077 6.62675 9.62589 6.86293 9.53898C7.09912 9.45207 7.35074 9.41503 7.60195 9.43018Z"
                        fill="white"
                      />
                      <path
                        d="M19.002 2.76318H18.3353V3.09652C18.3353 3.36173 18.2299 3.61609 18.0424 3.80362C17.8549 3.99116 17.6005 4.09652 17.3353 4.09652C17.0701 4.09652 16.8157 3.99116 16.6282 3.80362C16.4406 3.61609 16.3353 3.36173 16.3353 3.09652V2.76318H14.3353V3.09652C14.3353 3.36173 14.2299 3.61609 14.0424 3.80362C13.8549 3.99116 13.6005 4.09652 13.3353 4.09652C13.0701 4.09652 12.8157 3.99116 12.6282 3.80362C12.4406 3.61609 12.3353 3.36173 12.3353 3.09652V2.76318H10.3353V3.09652C10.3353 3.36173 10.2299 3.61609 10.0424 3.80362C9.85486 3.99116 9.6005 4.09652 9.33529 4.09652C9.07007 4.09652 8.81572 3.99116 8.62818 3.80362C8.44064 3.61609 8.33529 3.36173 8.33529 3.09652V2.76318H6.33529V3.09652C6.33529 3.36173 6.22993 3.61609 6.04239 3.80362C5.85486 3.99116 5.6005 4.09652 5.33529 4.09652C5.07007 4.09652 4.81572 3.99116 4.62818 3.80362C4.44064 3.61609 4.33529 3.36173 4.33529 3.09652V2.76318H3.66862C3.22675 2.76371 2.80314 2.93948 2.49069 3.25192C2.17825 3.56437 2.00248 3.98799 2.00195 4.42985V4.76318H20.6686V4.42985C20.6681 3.98799 20.4923 3.56437 20.1799 3.25192C19.8674 2.93948 19.4438 2.76371 19.002 2.76318Z"
                        fill="white"
                      />
                    </g>
                    <defs>
                      <clipPath id="clip0_387_916">
                        <rect
                          width="20"
                          height="20"
                          fill="white"
                          transform="translate(0.834961 0.763184)"
                        />
                      </clipPath>
                    </defs>
                  </svg>