  <svg
                width="61"
                height="60"
                viewBox="0 0 61 60"
                fill="none"
                xmlns="http://www.w3.org/2000/svg"
              >
                <g opacity="0.5">
                  <circle
                    opacity="0.3"
                    cx="30.5"
                    cy="30"
                    r="25"
                    fill="#FF3D24"
                  />
                  <circle
                    opacity="0.3"
                    cx="30.5"
                    cy="30"
                    r="30"
                    fill="#FF3D24"
                  />
                  <circle cx="30.5" cy="30" r="20" fill="#FF3D24" />
                </g>
                <g clipPath="url(#clip0_52_110)">
                  <path
                    d="M25 22.6667C25.0884 22.6667 25.1732 22.6316 25.2357 22.569C25.2982 22.5065 25.3334 22.4217 25.3334 22.3333V21C25.3334 20.9116 25.2982 20.8268 25.2357 20.7643C25.1732 20.7018 25.0884 20.6667 25 20.6667C24.9116 20.6667 24.8268 20.7018 24.7643 20.7643C24.7018 20.8268 24.6667 20.9116 24.6667 21V22.3333C24.6667 22.4217 24.7018 22.5065 24.7643 22.569C24.8268 22.6316 24.9116 22.6667 25 22.6667Z"
                    fill="white"
                  />
                  <path
                    d="M29 22.6667C29.0884 22.6667 29.1732 22.6316 29.2357 22.569C29.2982 22.5065 29.3334 22.4217 29.3334 22.3333V21C29.3334 20.9116 29.2982 20.8268 29.2357 20.7643C29.1732 20.7018 29.0884 20.6667 29 20.6667C28.9116 20.6667 28.8268 20.7018 28.7643 20.7643C28.7018 20.8268 28.6667 20.9116 28.6667 21V22.3333C28.6667 22.4217 28.7018 22.5065 28.7643 22.569C28.8268 22.6316 28.9116 22.6667 29 22.6667Z"
                    fill="white"
                  />
                  <path
                    d="M37 22.6667C37.0884 22.6667 37.1732 22.6316 37.2357 22.569C37.2982 22.5065 37.3334 22.4217 37.3334 22.3333V21C37.3334 20.9116 37.2982 20.8268 37.2357 20.7643C37.1732 20.7018 37.0884 20.6667 37 20.6667C36.9116 20.6667 36.8268 20.7018 36.7643 20.7643C36.7018 20.8268 36.6667 20.9116 36.6667 21V22.3333C36.6667 22.4217 36.7018 22.5065 36.7643 22.569C36.8268 22.6316 36.9116 22.6667 37 22.6667Z"
                    fill="white"
                  />
                  <path
                    d="M33 22.6667C33.0884 22.6667 33.1732 22.6316 33.2357 22.569C33.2982 22.5065 33.3334 22.4217 33.3334 22.3333V21C33.3334 20.9116 33.2982 20.8268 33.2357 20.7643C33.1732 20.7018 33.0884 20.6667 33 20.6667C32.9116 20.6667 32.8268 20.7018 32.7643 20.7643C32.7018 20.8268 32.6667 20.9116 32.6667 21V22.3333C32.6667 22.4217 32.7018 22.5065 32.7643 22.569C32.8268 22.6316 32.9116 22.6667 33 22.6667Z"
                    fill="white"
                  />
                  <path
                    d="M32.3333 29.9503L30.6937 32H32.3333V29.9503Z"
                    fill="white"
                  />
                  <path
                    d="M21.6667 37.6667C21.6672 38.1085 21.843 38.5322 22.1554 38.8446C22.4679 39.157 22.8915 39.3328 23.3334 39.3333H38.6667C39.1086 39.3328 39.5322 39.157 39.8446 38.8446C40.1571 38.5322 40.3328 38.1085 40.3334 37.6667V24.6667H21.6667V37.6667ZM34.6667 34V32.3333C34.6667 32.2449 34.7018 32.1601 34.7643 32.0976C34.8268 32.0351 34.9116 32 35 32C35.0884 32 35.1732 32.0351 35.2357 32.0976C35.2982 32.1601 35.3334 32.2449 35.3334 32.3333V33.0613C35.4401 33.0219 35.5529 33.0011 35.6667 33C35.9319 33 36.1863 33.1054 36.3738 33.2929C36.5613 33.4804 36.6667 33.7348 36.6667 34V34.3333C36.6667 34.4217 36.6316 34.5065 36.5691 34.569C36.5065 34.6316 36.4218 34.6667 36.3334 34.6667C36.2449 34.6667 36.1602 34.6316 36.0977 34.569C36.0351 34.5065 36 34.4217 36 34.3333V34C36 33.9116 35.9649 33.8268 35.9024 33.7643C35.8399 33.7018 35.7551 33.6667 35.6667 33.6667C35.5783 33.6667 35.4935 33.7018 35.431 33.7643C35.3685 33.8268 35.3334 33.9116 35.3334 34V34.3333C35.3334 34.4217 35.2982 34.5065 35.2357 34.569C35.1732 34.6316 35.0884 34.6667 35 34.6667C34.9116 34.6667 34.8268 34.6316 34.7643 34.569C34.7018 34.5065 34.6667 34.4217 34.6667 34.3333V34ZM29.7397 32.125L32.4064 28.7917C32.4495 28.7377 32.5084 28.6985 32.5748 28.6794C32.6412 28.6604 32.7119 28.6624 32.7771 28.6853C32.8423 28.7082 32.8987 28.7508 32.9387 28.8071C32.9786 28.8635 33.0001 28.9309 33 29V32H33.6667C33.7551 32 33.8399 32.0351 33.9024 32.0976C33.9649 32.1601 34 32.2449 34 32.3333C34 32.4217 33.9649 32.5065 33.9024 32.569C33.8399 32.6316 33.7551 32.6667 33.6667 32.6667H33V34.3333C33 34.4217 32.9649 34.5065 32.9024 34.569C32.8399 34.6316 32.7551 34.6667 32.6667 34.6667C32.5783 34.6667 32.4935 34.6316 32.431 34.569C32.3685 34.5065 32.3334 34.4217 32.3334 34.3333V32.6667H30C29.9372 32.6667 29.8757 32.649 29.8225 32.6155C29.7693 32.5821 29.7267 32.5343 29.6995 32.4777C29.6723 32.4211 29.6616 32.358 29.6687 32.2956C29.6758 32.2332 29.7004 32.174 29.7397 32.125ZM27.2667 28.6667C27.9354 28.6667 29.2 29.055 29.2 30.5237C29.2 31.9153 27.743 33.25 26.7457 34H29.6667C29.7551 34 29.8399 34.0351 29.9024 34.0976C29.9649 34.1601 30 34.2449 30 34.3333C30 34.4217 29.9649 34.5065 29.9024 34.569C29.8399 34.6316 29.7551 34.6667 29.6667 34.6667H25.6667C25.5937 34.6667 25.5227 34.6427 25.4647 34.5985C25.4066 34.5543 25.3647 34.4922 25.3453 34.4218C25.3259 34.3515 25.3302 34.2767 25.3574 34.209C25.3846 34.1413 25.4333 34.0844 25.496 34.047C26.3407 33.5433 28.5334 31.9283 28.5334 30.5237C28.5334 29.377 27.395 29.3343 27.2667 29.3333C27.1033 29.3203 26.9391 29.3417 26.7845 29.396C26.6299 29.4503 26.4883 29.5364 26.369 29.6487C26.2497 29.761 26.1552 29.8971 26.0917 30.0481C26.0281 30.1992 25.9969 30.3618 26 30.5257C25.9992 30.6136 25.9638 30.6976 25.9013 30.7594C25.8389 30.8213 25.7546 30.856 25.6667 30.856C25.5786 30.8556 25.4942 30.8203 25.4321 30.7578C25.3699 30.6953 25.335 30.6108 25.335 30.5227C25.3299 30.2711 25.377 30.0211 25.4733 29.7886C25.5695 29.5561 25.7129 29.346 25.8944 29.1716C26.0759 28.9973 26.2915 28.8624 26.5277 28.7755C26.7639 28.6886 27.0155 28.6515 27.2667 28.6667Z"
                    fill="white"
                  />
                  <path
                    d="M38.6667 22H38V22.3333C38 22.5985 37.8947 22.8529 37.7071 23.0404C37.5196 23.228 37.2652 23.3333 37 23.3333C36.7348 23.3333 36.4805 23.228 36.2929 23.0404C36.1054 22.8529 36 22.5985 36 22.3333V22H34V22.3333C34 22.5985 33.8947 22.8529 33.7071 23.0404C33.5196 23.228 33.2652 23.3333 33 23.3333C32.7348 23.3333 32.4805 23.228 32.2929 23.0404C32.1054 22.8529 32 22.5985 32 22.3333V22H30V22.3333C30 22.5985 29.8947 22.8529 29.7071 23.0404C29.5196 23.228 29.2652 23.3333 29 23.3333C28.7348 23.3333 28.4805 23.228 28.2929 23.0404C28.1054 22.8529 28 22.5985 28 22.3333V22H26V22.3333C26 22.5985 25.8947 22.8529 25.7071 23.0404C25.5196 23.228 25.2652 23.3333 25 23.3333C24.7348 23.3333 24.4804 23.228 24.2929 23.0404C24.1054 22.8529 24 22.5985 24 22.3333V22H23.3334C22.8915 22.0005 22.4679 22.1763 22.1554 22.4887C21.843 22.8012 21.6672 23.2248 21.6667 23.6667V24H40.3334V23.6667C40.3328 23.2248 40.1571 22.8012 39.8446 22.4887C39.5322 22.1763 39.1086 22.0005 38.6667 22Z"
                    fill="white"
                  />
                </g>
                <defs>
                  <clipPath id="clip0_52_110">
                    <rect
                      width="20"
                      height="20"
                      fill="white"
                      transform="translate(20.5 20)"
                    />
                  </clipPath>
                </defs>
              </svg>