 <svg
                  width="61"
                  height="60"
                  viewBox="0 0 61 60"
                  fill="none"
                  xmlns="http://www.w3.org/2000/svg"
                >
                  <g opacity="0.5">
                    <circle
                      opacity="0.3"
                      cx="30.5"
                      cy="30"
                      r="25"
                      fill="#FF3D24"
                    />
                    <circle
                      opacity="0.3"
                      cx="30.5"
                      cy="30"
                      r="30"
                      fill="#FF3D24"
                    />
                    <circle cx="30.5" cy="30" r="20" fill="#FF3D24" />
                  </g>
                  <g clipPath="url(#clip0_52_92)">
                    <path
                      d="M39.2141 38.8572C39.6637 38.8572 40.0533 38.7087 40.3844 38.4156L34.7181 32.7491C34.5821 32.8464 34.4504 32.9411 34.3259 33.0311C33.9019 33.3435 33.5577 33.5873 33.2934 33.762C33.0292 33.9371 32.6776 34.1156 32.2388 34.2978C31.7996 34.4802 31.3905 34.5711 31.011 34.5711H30.9999H30.9888C30.6092 34.5711 30.2001 34.4803 29.761 34.2978C29.3219 34.1156 28.9703 33.9371 28.7063 33.762C28.4421 33.5873 28.0981 33.3436 27.6738 33.0311C27.5556 32.9444 27.4245 32.8493 27.2827 32.7476L21.6153 38.4156C21.9465 38.7087 22.3363 38.8572 22.7858 38.8572H39.2141Z"
                      fill="white"
                    />
                    <path
                      d="M22.1274 29.1809C21.7033 28.8982 21.3273 28.5744 21 28.2097V36.8309L25.9943 31.8367C24.9951 31.1391 23.7078 30.2549 22.1274 29.1809Z"
                      fill="white"
                    />
                    <path
                      d="M39.8839 29.1809C38.3638 30.2098 37.0718 31.0955 36.0077 31.8386L41 36.8311V28.2097C40.6799 28.5671 40.308 28.8906 39.8839 29.1809Z"
                      fill="white"
                    />
                    <path
                      d="M39.2141 23.1428H22.7858C22.2127 23.1428 21.772 23.3364 21.4634 23.723C21.1544 24.1099 21.0002 24.5937 21.0002 25.1739C21.0002 25.6426 21.2049 26.1504 21.614 26.6975C22.0231 27.2444 22.4584 27.6739 22.9198 27.9864C23.1727 28.1651 23.9354 28.6953 25.2078 29.5769C25.8947 30.0529 26.4921 30.4678 27.0054 30.8258C27.4429 31.1307 27.8203 31.3947 28.1318 31.6138C28.1676 31.6389 28.2238 31.6791 28.2985 31.7325C28.3789 31.7902 28.4807 31.8636 28.6063 31.9542C28.8481 32.1291 29.0489 32.2705 29.2089 32.3785C29.3687 32.4865 29.5623 32.6071 29.7894 32.7411C30.0163 32.8749 30.2303 32.9756 30.4312 33.0425C30.6321 33.1094 30.8181 33.1429 30.9892 33.1429H31.0003H31.0114C31.1824 33.1429 31.3685 33.1094 31.5694 33.0425C31.7702 32.9756 31.9841 32.8752 32.2112 32.7411C32.438 32.6071 32.6314 32.4862 32.7916 32.3785C32.9516 32.2705 33.1525 32.1291 33.3943 31.9542C33.5196 31.8636 33.6214 31.7902 33.7019 31.7327C33.7765 31.6791 33.8328 31.6391 33.8687 31.6138C34.1114 31.4449 34.4897 31.182 34.9982 30.8289C35.9234 30.186 37.2861 29.2398 39.092 27.9864C39.6351 27.6071 40.0888 27.1493 40.4535 26.6137C40.8175 26.0782 41 25.5164 41 24.9286C41 24.4375 40.8231 24.0173 40.4699 23.6673C40.1164 23.3177 39.6978 23.1428 39.2141 23.1428Z"
                      fill="white"
                    />
                  </g>
                  <defs>
                    <clipPath id="clip0_52_92">
                      <rect
                        width="20"
                        height="20"
                        fill="white"
                        transform="translate(20.5 21)"
                      />
                    </clipPath>
                  </defs>
                </svg>