<svg
                  width="61"
                  height="60"
                  viewBox="0 0 61 60"
                  fill="none"
                  xmlns="http://www.w3.org/2000/svg"
                >
                  <g opacity="0.5">
                    <circle
                      opacity="0.3"
                      cx="30.5"
                      cy="30"
                      r="25"
                      fill="#FF3D24"
                    />
                    <circle
                      opacity="0.3"
                      cx="30.5"
                      cy="30"
                      r="30"
                      fill="#FF3D24"
                    />
                    <circle cx="30.5" cy="30" r="20" fill="#FF3D24" />
                  </g>
                  <path
                    d="M30.5 21C26.9857 21 24.0547 23.8309 24.0547 27.4453C24.0547 28.8204 24.4679 30.0466 25.2609 31.1955L30.0068 38.601C30.237 38.961 30.7635 38.9603 30.9932 38.601L35.7597 31.1704C36.5356 30.0734 36.9453 28.7854 36.9453 27.4453C36.9453 23.8914 34.0539 21 30.5 21ZM30.5 30.375C28.8846 30.375 27.5703 29.0607 27.5703 27.4453C27.5703 25.83 28.8846 24.5156 30.5 24.5156C32.1154 24.5156 33.4297 25.83 33.4297 27.4453C33.4297 29.0607 32.1154 30.375 30.5 30.375Z"
                    fill="white"
                  />
                  <path
                    d="M35.0806 34.4646L32.1302 39.0774C31.3665 40.2681 29.6293 40.2642 28.8692 39.0786L25.914 34.4659C23.3138 35.067 21.7109 36.1683 21.7109 37.4844C21.7109 39.768 26.2394 41 30.5 41C34.7606 41 39.2891 39.768 39.2891 37.4844C39.2891 36.1674 37.6839 35.0655 35.0806 34.4646Z"
                    fill="white"
                  />
                </svg>