<svg width="27" height="27" viewBox="0 0 27 27" fill="none"
                                    xmlns="http://www.w3.org/2000/svg">
                                    <circle opacity="0.1" cx="13.5" cy="13.0654" r="13" fill="white" />
                                    <path
                                        d="M7.94379 12.4732C7.66765 12.4739 7.39737 12.5529 7.16423 12.7009C6.93108 12.8488 6.74459 13.0598 6.62634 13.3093C6.50808 13.5589 6.4629 13.8368 6.496 14.1109C6.52911 14.3851 6.63916 14.6442 6.81342 14.8585L10.5282 19.409C10.6606 19.5735 10.8304 19.704 11.0234 19.7897C11.2164 19.8753 11.4271 19.9137 11.6379 19.9016C12.0888 19.8774 12.4959 19.6362 12.7554 19.2396L20.4719 6.81218C20.4732 6.81012 20.4745 6.80806 20.4759 6.80603C20.5483 6.69486 20.5248 6.47455 20.3754 6.33615C20.3343 6.29815 20.2859 6.26895 20.2331 6.25035C20.1804 6.23176 20.1244 6.22416 20.0685 6.22803C20.0127 6.2319 19.9583 6.24716 19.9086 6.27286C19.8589 6.29856 19.815 6.33416 19.7796 6.37748C19.7768 6.38088 19.774 6.38423 19.771 6.38754L11.9888 15.1803C11.9592 15.2137 11.9233 15.241 11.883 15.2604C11.8428 15.2799 11.7991 15.2911 11.7545 15.2935C11.7099 15.2959 11.6652 15.2895 11.6231 15.2745C11.581 15.2595 11.5423 15.2363 11.5093 15.2062L8.92653 12.8559C8.65828 12.61 8.30768 12.4734 7.94379 12.4732Z"
                                        fill="white" />
                                </svg>