  <svg
                xmlns="http://www.w3.org/2000/svg"
                width="46"
                height="47"
                viewBox="0 0 46 47"
                fill="none"
              >
                <g clip-path="url(#clip0_348_321)">
                  <path
                    d="M22.9999 20.8334C21.3551 20.8334 20.0171 22.1716 20.0171 23.8162C20.181 27.7734 25.8195 27.7722 25.9827 23.8162C25.9827 22.1715 24.6447 20.8334 22.9999 20.8334Z"
                    fill="white"
                  />
                  <path
                    d="M21.5024 35.3645C22.4923 35.4916 23.5078 35.4916 24.4977 35.3645C24.3028 32.0256 23.4688 30.0714 23.0001 29.5739C22.5313 30.0714 21.6974 32.0256 21.5024 35.3645Z"
                    fill="white"
                  />
                  <path
                    d="M18.0094 26.5227C16.242 27.4234 14.3966 27.7599 12.1221 27.9682C13.3039 31.054 15.7624 33.5125 18.8481 34.6943C18.9837 32.9841 19.2832 31.4083 19.7207 30.14C19.8992 29.6225 20.0919 29.1816 20.2936 28.8069C19.33 28.2821 18.5342 27.4864 18.0094 26.5227Z"
                    fill="white"
                  />
                  <path
                    d="M24.4977 12.268C23.5078 12.141 22.4923 12.141 21.5024 12.268C21.6974 15.607 22.5314 17.5612 23 18.0586C23.4689 17.5612 24.3028 15.607 24.4977 12.268Z"
                    fill="white"
                  />
                  <path
                    d="M11.4519 22.3187C11.3246 23.3079 11.3246 24.3247 11.4519 25.314C14.791 25.119 16.7451 24.285 17.2425 23.8164C16.7451 23.3476 14.791 22.5136 11.4519 22.3187Z"
                    fill="white"
                  />
                  <path
                    d="M18.0094 21.1098C18.5341 20.146 19.3299 19.3504 20.2936 18.8256C20.0919 18.4509 19.8992 18.01 19.7207 17.4925C19.2832 16.2242 18.9837 14.6484 18.8481 12.9382C15.7624 14.12 13.3039 16.5785 12.1221 19.6643C14.3966 19.8725 16.2422 20.2092 18.0094 21.1098Z"
                    fill="white"
                  />
                  <path
                    d="M44.6524 19.5816C44.6135 19.5816 44.5842 19.5576 44.5776 19.5243C44.5709 19.4914 44.5889 19.4577 44.6203 19.4447C45.3186 19.1553 45.6367 18.3643 45.354 17.6818L43.1444 12.3473C42.8617 11.6649 42.0774 11.3305 41.379 11.6196C41.3476 11.6325 41.3111 11.6215 41.2925 11.5935C41.2736 11.5653 41.2774 11.5275 41.3049 11.5C41.8312 10.9737 41.8312 10.1205 41.3049 9.59417L37.2221 5.5114C36.6958 4.98509 35.8425 4.98509 35.3162 5.5114C35.2887 5.53889 35.2509 5.54266 35.2228 5.52379C35.1948 5.50529 35.1837 5.46863 35.1966 5.43737C35.4859 4.73892 35.1514 3.95467 34.4689 3.67194L29.1345 1.46223C28.4521 1.17958 27.661 1.49772 27.3716 2.19598C27.3586 2.22734 27.3249 2.2454 27.292 2.23866C27.2588 2.2321 27.2347 2.20272 27.2347 2.16382C27.2347 1.41955 26.6313 0.816162 25.887 0.816162H20.1131C19.3688 0.816162 18.7654 1.41955 18.7654 2.16382C18.7654 2.20272 18.7413 2.2321 18.7081 2.23866C18.6752 2.2454 18.6414 2.22734 18.6285 2.19598C18.3391 1.49763 17.548 1.17958 16.8656 1.46223L11.5311 3.67185C10.8486 3.95458 10.5142 4.73883 10.8034 5.43727C10.8163 5.46863 10.8052 5.5052 10.7772 5.52371C10.7491 5.54257 10.7113 5.5388 10.6838 5.51131C10.1575 4.985 9.30422 4.985 8.77791 5.51131L4.69523 9.59417C4.16893 10.1205 4.16893 10.9737 4.69523 11.5C4.72273 11.5275 4.7265 11.5653 4.70763 11.5935C4.68913 11.6215 4.65247 11.6325 4.62111 11.6196C3.92267 11.3304 3.13842 11.6649 2.85568 12.3473L0.646066 17.6818C0.363418 18.3643 0.681555 19.1553 1.37982 19.4447C1.41118 19.4578 1.42923 19.4914 1.4225 19.5243C1.41594 19.5576 1.38656 19.5816 1.34766 19.5816C0.603391 19.5816 0 20.185 0 20.9293V26.7033C0 27.4476 0.603391 28.0509 1.34766 28.0509C1.38656 28.0509 1.41594 28.075 1.4225 28.1083C1.42923 28.1412 1.41118 28.1749 1.37982 28.1879C0.681465 28.4773 0.363418 29.2683 0.646066 29.9508L2.85568 35.2853C3.13842 35.9677 3.92267 36.3021 4.62111 36.013C4.65247 36.0001 4.68903 36.0111 4.70763 36.0391C4.7265 36.0673 4.72273 36.1051 4.69523 36.1326C4.16893 36.6589 4.16893 37.5121 4.69523 38.0384L8.778 42.1212C9.30431 42.6475 10.1576 42.6475 10.6839 42.1212C10.7114 42.0937 10.7492 42.0899 10.7773 42.1088C10.8053 42.1273 10.8164 42.164 10.8034 42.1953C10.5142 42.8938 10.8487 43.678 11.5312 43.9608L16.8656 46.1704C17.5481 46.453 18.3392 46.1349 18.6286 45.4366C18.6416 45.4053 18.6753 45.3872 18.7082 45.3939C18.7414 45.4005 18.7655 45.4299 18.7655 45.4688C18.7655 46.213 19.3689 46.8164 20.1131 46.8164H25.8871C26.6314 46.8164 27.2348 46.213 27.2348 45.4688C27.2348 45.4299 27.2589 45.4005 27.2921 45.3939C27.325 45.3872 27.3588 45.4053 27.3717 45.4366C27.6611 46.135 28.4522 46.453 29.1346 46.1704L34.4691 43.9608C35.1515 43.678 35.4859 42.8938 35.1968 42.1953C35.1839 42.164 35.1949 42.1274 35.223 42.1088C35.2511 42.0899 35.2889 42.0937 35.3164 42.1212C35.8427 42.6475 36.696 42.6475 37.2223 42.1212L41.305 38.0384C41.8313 37.5121 41.8313 36.6589 41.305 36.1326C41.2775 36.1051 41.2738 36.0673 41.2926 36.0391C41.3111 36.0111 41.3478 36.0001 41.3792 36.013C42.0776 36.3022 42.8619 35.9677 43.1446 35.2853L45.3542 29.9508C45.6369 29.2683 45.3187 28.4773 44.6205 28.1879C44.5891 28.1748 44.571 28.1412 44.5778 28.1083C44.5843 28.075 44.6137 28.0509 44.6526 28.0509C45.3969 28.0509 46.0003 27.4476 46.0003 26.7033V20.9293C46.0001 20.185 45.3967 19.5816 44.6524 19.5816ZM23.0001 38.1553C15.0935 38.1553 8.66103 31.7229 8.66103 23.8163C9.44869 4.79355 36.5545 4.79903 37.3392 23.8163C37.3392 31.7229 30.9067 38.1553 23.0001 38.1553Z"
                    fill="white"
                  />
                  <path
                    d="M27.9907 26.5227C27.466 27.4865 26.6703 28.2821 25.7065 28.8069C25.9082 29.1816 26.101 29.6225 26.2795 30.14C26.717 31.4083 27.0165 32.9841 27.152 34.6943C30.2378 33.5125 32.6963 31.054 33.8781 27.9682C31.6036 27.76 29.758 27.4233 27.9907 26.5227Z"
                    fill="white"
                  />
                  <path
                    d="M27.152 12.9382C27.0165 14.6484 26.717 16.2242 26.2795 17.4925C26.101 18.01 25.9082 18.4509 25.7065 18.8256C26.6703 19.3503 27.466 20.146 27.9907 21.1098C29.7581 20.2091 31.6035 19.8726 33.8781 19.6643C32.6963 16.5785 30.2378 14.12 27.152 12.9382Z"
                    fill="white"
                  />
                  <path
                    d="M34.5484 25.3138C34.6757 24.3246 34.6757 23.3078 34.5484 22.3185C31.2094 22.5135 29.2553 23.3475 28.7578 23.8161C29.2553 24.285 31.2094 25.1189 34.5484 25.3138Z"
                    fill="white"
                  />
                </g>
                <defs>
                  <clipPath id="clip0_348_321">
                    <rect
                      width="46"
                      height="46"
                      fill="white"
                      transform="translate(0 0.816223)"
                    />
                  </clipPath>
                </defs>
              </svg>