<svg
                xmlns="http://www.w3.org/2000/svg"
                width="46"
                height="47"
                viewBox="0 0 46 47"
                fill="none"
              >
                <path
                  d="M2.92188 28.5912V33.2587C2.92218 33.5223 3.02706 33.7751 3.2135 33.9615C3.39994 34.1479 3.65271 34.2528 3.91636 34.2531H5.82814V27.5968H3.91636C3.65271 27.5971 3.39994 27.7019 3.2135 27.8884C3.02706 28.0748 2.92218 28.3275 2.92188 28.5912Z"
                  fill="white"
                />
                <path
                  d="M13.9375 20.6284C14.7564 20.6284 15.557 20.3856 16.2379 19.9306C16.9188 19.4756 17.4496 18.8289 17.7629 18.0723C18.0763 17.3157 18.1583 16.4832 17.9986 15.68C17.8388 14.8768 17.4444 14.139 16.8654 13.5599C16.2863 12.9809 15.5485 12.5865 14.7453 12.4267C13.9421 12.267 13.1096 12.349 12.353 12.6624C11.5964 12.9758 10.9497 13.5065 10.4947 14.1874C10.0397 14.8683 9.79688 15.6689 9.79688 16.4878C9.79814 17.5856 10.2348 18.638 11.011 19.4143C11.7873 20.1905 12.8397 20.6272 13.9375 20.6284ZM13.9375 14.1284C14.4041 14.1284 14.8603 14.2668 15.2483 14.5261C15.6363 14.7853 15.9387 15.1538 16.1172 15.585C16.2958 16.0161 16.3425 16.4905 16.2515 16.9481C16.1604 17.4058 15.9357 17.8262 15.6057 18.1562C15.2758 18.4861 14.8553 18.7108 14.3977 18.8019C13.94 18.8929 13.4656 18.8462 13.0345 18.6676C12.6034 18.489 12.2349 18.1866 11.9756 17.7986C11.7164 17.4106 11.578 16.9544 11.578 16.4878C11.5786 15.8622 11.8274 15.2624 12.2698 14.82C12.7121 14.3776 13.3119 14.1287 13.9375 14.1281V14.1284Z"
                  fill="white"
                />
                <path
                  d="M23.7032 4.504C23.7026 3.99839 23.5015 3.51364 23.144 3.1561C22.7865 2.79856 22.3018 2.59742 21.7961 2.5968H18.3292C17.8235 2.59737 17.3387 2.79849 16.9812 3.15603C16.6236 3.51358 16.4225 3.99835 16.4219 4.504V5.37809H23.7032V4.504Z"
                  fill="white"
                />
                <path
                  d="M13.9376 18.1281C14.2621 18.1281 14.5793 18.0318 14.8491 17.8515C15.1189 17.6712 15.3291 17.415 15.4533 17.1152C15.5775 16.8154 15.6099 16.4856 15.5466 16.1673C15.4833 15.8491 15.327 15.5567 15.0976 15.3273C14.8681 15.0979 14.5758 14.9416 14.2576 14.8783C13.9393 14.815 13.6094 14.8475 13.3096 14.9717C13.0099 15.0959 12.7536 15.3062 12.5734 15.576C12.3931 15.8458 12.2969 16.163 12.2969 16.4874C12.2974 16.9224 12.4704 17.3395 12.778 17.647C13.0856 17.9546 13.5026 18.1276 13.9376 18.1281Z"
                  fill="white"
                />
                <path
                  d="M17.9834 13.7997L17.991 13.7949L23.1958 22.0006L30.6829 14.5477C30.891 13.7935 31.2369 13.0843 31.7031 12.4561V7.86247C31.7026 7.39437 31.5165 6.94559 31.1855 6.61458C30.8545 6.28358 30.4057 6.09739 29.9376 6.09686H16.4219V12.3132C17.0464 12.6866 17.5798 13.1944 17.9834 13.7997ZM24.5626 18.3464H22.6875C22.5922 18.3464 22.5008 18.3086 22.4334 18.2412C22.366 18.1738 22.3281 18.0824 22.3281 17.9871C22.3281 17.8917 22.366 17.8003 22.4334 17.7329C22.5008 17.6655 22.5922 17.6277 22.6875 17.6277H24.5626C24.6579 17.6277 24.7493 17.6655 24.8167 17.7329C24.8841 17.8003 24.922 17.8917 24.922 17.9871C24.922 18.0824 24.8841 18.1738 24.8167 18.2412C24.7493 18.3086 24.6579 18.3464 24.5626 18.3464ZM26.9375 15.8965H21.4375C21.3422 15.8965 21.2508 15.8586 21.1834 15.7912C21.116 15.7238 21.0781 15.6324 21.0781 15.5371C21.0781 15.4418 21.116 15.3504 21.1834 15.283C21.2508 15.2156 21.3422 15.1777 21.4375 15.1777H26.9375C27.0329 15.1777 27.1243 15.2156 27.1917 15.283C27.2591 15.3504 27.2969 15.4418 27.2969 15.5371C27.2969 15.6324 27.2591 15.7238 27.1917 15.7912C27.1243 15.8586 27.0329 15.8965 26.9375 15.8965ZM20.6876 7.82806H27.6876C27.7829 7.82806 27.8743 7.86592 27.9417 7.93332C28.0091 8.00072 28.0469 8.09212 28.0469 8.18744C28.0469 8.28275 28.0091 8.37416 27.9417 8.44155C27.8743 8.50895 27.7829 8.54681 27.6876 8.54681H20.6876C20.5923 8.54681 20.5008 8.50895 20.4334 8.44155C20.3661 8.37416 20.3282 8.28275 20.3282 8.18744C20.3282 8.09212 20.3661 8.00072 20.4334 7.93332C20.5008 7.86592 20.5923 7.82806 20.6876 7.82806ZM20.6876 10.2781H27.6876C27.7829 10.2781 27.8743 10.316 27.9417 10.3834C28.0091 10.4508 28.0469 10.5422 28.0469 10.6375C28.0469 10.7328 28.0091 10.8242 27.9417 10.8916C27.8743 10.959 27.7829 10.9969 27.6876 10.9969H20.6876C20.5923 10.9969 20.5008 10.959 20.4334 10.8916C20.3661 10.8242 20.3282 10.7328 20.3282 10.6375C20.3282 10.5422 20.3661 10.4508 20.4334 10.3834C20.5008 10.316 20.5923 10.2781 20.6876 10.2781ZM20.6876 12.7281H27.6876C27.7829 12.7281 27.8743 12.7659 27.9417 12.8333C28.0091 12.9007 28.0469 12.9921 28.0469 13.0874C28.0469 13.1827 28.0091 13.2741 27.9417 13.3415C27.8743 13.4089 27.7829 13.4468 27.6876 13.4468H20.6876C20.5923 13.4468 20.5008 13.4089 20.4334 13.3415C20.3661 13.2741 20.3282 13.1827 20.3282 13.0874C20.3282 12.9921 20.3661 12.9007 20.4334 12.8333C20.5008 12.7659 20.5923 12.7281 20.6876 12.7281Z"
                  fill="white"
                />
                <path
                  d="M36.8125 21.8781C37.9282 21.8781 39.0187 21.5472 39.9463 20.9274C40.8739 20.3076 41.5969 19.4267 42.0238 18.396C42.4508 17.3653 42.5625 16.2311 42.3448 15.137C42.1272 14.0428 41.5899 13.0377 40.8011 12.2489C40.0122 11.46 39.0072 10.9228 37.913 10.7051C36.8188 10.4875 35.6846 10.5992 34.6539 11.0261C33.6233 11.453 32.7423 12.176 32.1225 13.1036C31.5027 14.0312 31.1719 15.1218 31.1719 16.2374C31.1735 17.7329 31.7684 19.1666 32.8258 20.2241C33.8833 21.2816 35.3171 21.8764 36.8125 21.8781ZM36.8125 14.378C37.1804 14.3779 37.54 14.4869 37.8459 14.6912C38.1518 14.8955 38.3902 15.1859 38.5311 15.5257C38.6719 15.8656 38.7088 16.2395 38.6371 16.6003C38.5654 16.9611 38.3883 17.2925 38.1282 17.5527C37.8681 17.8128 37.5367 17.99 37.176 18.0618C36.8152 18.1336 36.4412 18.0968 36.1014 17.956C35.7615 17.8153 35.4711 17.5769 35.2667 17.271C35.0623 16.9652 34.9532 16.6056 34.9532 16.2378C34.9537 15.7447 35.1497 15.2721 35.4983 14.9234C35.8469 14.5747 36.3195 14.3786 36.8125 14.378Z"
                  fill="white"
                />
                <path
                  d="M36.8125 17.3781C37.4425 17.3781 37.9532 16.8674 37.9532 16.2374C37.9532 15.6074 37.4425 15.0967 36.8125 15.0967C36.1826 15.0967 35.6719 15.6074 35.6719 16.2374C35.6719 16.8674 36.1826 17.3781 36.8125 17.3781Z"
                  fill="white"
                />
                <path
                  d="M37.953 26.5897L35.5137 31.2531H37.953V26.5897Z"
                  fill="white"
                />
                <path
                  d="M13.9376 21.3472C12.8892 21.3483 11.8688 21.0086 11.0303 20.3792L14.447 28.9289C15.878 26.9377 17.9526 25.5016 20.3201 24.8635L22.674 22.5203L18.7948 16.4045C18.7953 16.4324 18.797 16.4599 18.797 16.4878C18.7955 17.7762 18.2831 19.0113 17.3721 19.9223C16.4611 20.8333 15.226 21.3458 13.9376 21.3472Z"
                  fill="white"
                />
                <path
                  d="M36.8127 22.5968C35.1266 22.5949 33.5102 21.9243 32.318 20.7321C31.1258 19.5399 30.4552 17.9235 30.4533 16.2374C30.4533 16.0806 30.461 15.9257 30.4721 15.7717L21.5986 24.6045C24.3542 24.2208 27.1502 24.9347 29.3845 26.5925C31.6188 28.2503 33.1125 30.7194 33.5441 33.4678L39.5566 21.9735C38.7004 22.3848 37.7625 22.5978 36.8127 22.5968Z"
                  fill="white"
                />
                <path
                  d="M23.063 25.2218C21.1068 25.2217 19.1945 25.8017 17.5679 26.8885C15.9413 27.9752 14.6736 29.5199 13.9249 31.3271C13.1762 33.1344 12.9803 35.1231 13.3619 37.0417C13.7435 38.9603 14.6854 40.7227 16.0686 42.106C17.4518 43.4893 19.2142 44.4313 21.1328 44.813C23.0514 45.1947 25.0401 44.9988 26.8474 44.2502C28.6547 43.5016 30.1994 42.2339 31.2862 40.6074C32.373 38.9809 32.9531 37.0686 32.9531 35.1124C32.9502 32.4903 31.9072 29.9763 30.0531 28.1221C28.199 26.2679 25.6851 25.2249 23.063 25.2218ZM23.063 41.9718C21.7063 41.9718 20.3801 41.5695 19.2521 40.8158C18.1241 40.062 17.2449 38.9907 16.7258 37.7373C16.2066 36.484 16.0708 35.1048 16.3355 33.7742C16.6002 32.4436 17.2535 31.2214 18.2128 30.2621C19.1721 29.3028 20.3943 28.6495 21.7249 28.3848C23.0555 28.1202 24.4347 28.256 25.688 28.7752C26.9414 29.2944 28.0127 30.1735 28.7664 31.3016C29.5201 32.4296 29.9224 33.7558 29.9224 35.1124C29.9204 36.931 29.197 38.6746 27.9111 39.9605C26.6251 41.2465 24.8816 41.9698 23.063 41.9718Z"
                  fill="white"
                />
                <path
                  d="M38.9532 37.2999C38.954 36.7093 39.1704 36.1393 39.5616 35.6968C39.9529 35.2544 40.4922 34.9699 41.0783 34.8969V33.8984C41.0777 33.3876 40.8745 32.8979 40.5133 32.5368C40.1522 32.1756 39.6625 31.9725 39.1517 31.9719H35.138L33.6665 34.785C33.6698 34.8938 33.6719 35.0029 33.6719 35.1125C33.6742 37.5288 32.8476 39.8728 31.3301 41.7531H38.6876C39.2629 41.7524 39.8187 41.5445 40.2533 41.1674C40.6879 40.7904 40.9721 40.2694 41.054 39.6999C40.4728 39.6215 39.9398 39.3351 39.5535 38.8939C39.1673 38.4526 38.954 37.8863 38.9532 37.2999ZM35.672 38.7374C35.672 38.8327 35.6342 38.9241 35.5668 38.9915C35.4994 39.0589 35.408 39.0968 35.3127 39.0968C35.2174 39.0968 35.126 39.0589 35.0586 38.9915C34.9912 38.9241 34.9533 38.8327 34.9533 38.7374V35.1124C34.9533 35.0171 34.9912 34.9257 35.0586 34.8583C35.126 34.7909 35.2174 34.753 35.3127 34.753C35.408 34.753 35.4994 34.7909 35.5668 34.8583C35.6342 34.9257 35.672 35.0171 35.672 35.1124V38.7374ZM37.6721 38.7374C37.6721 38.8327 37.6342 38.9241 37.5668 38.9915C37.4994 39.0589 37.408 39.0968 37.3127 39.0968C37.2174 39.0968 37.126 39.0589 37.0586 38.9915C36.9912 38.9241 36.9533 38.8327 36.9533 38.7374V35.1124C36.9533 35.0171 36.9912 34.9257 37.0586 34.8583C37.126 34.7909 37.2174 34.753 37.3127 34.753C37.408 34.753 37.4994 34.7909 37.5668 34.8583C37.6342 34.9257 37.6721 35.0171 37.6721 35.1124V38.7374Z"
                  fill="white"
                />
                <path
                  d="M23.0629 28.9718C21.8484 28.9718 20.6612 29.332 19.6514 30.0067C18.6416 30.6815 17.8545 31.6405 17.3898 32.7626C16.925 33.8846 16.8034 35.1193 17.0404 36.3105C17.2773 37.5016 17.8622 38.5958 18.721 39.4546C19.5797 40.3133 20.6739 40.8982 21.8651 41.1351C23.0562 41.372 24.2909 41.2504 25.4129 40.7856C26.535 40.3209 27.494 39.5338 28.1688 38.524C28.8435 37.5142 29.2036 36.3269 29.2036 35.1124C29.2018 33.4844 28.5543 31.9235 27.403 30.7723C26.2518 29.6211 24.691 28.9736 23.0629 28.9718ZM23.0629 37.0968C22.6704 37.0968 22.2868 36.9804 21.9605 36.7624C21.6341 36.5443 21.3798 36.2344 21.2296 35.8718C21.0794 35.5092 21.0401 35.1102 21.1167 34.7253C21.1932 34.3404 21.3822 33.9868 21.6597 33.7093C21.9373 33.4318 22.2909 33.2428 22.6758 33.1662C23.0607 33.0896 23.4597 33.1289 23.8223 33.2791C24.1849 33.4293 24.4948 33.6837 24.7129 34.01C24.9309 34.3363 25.0473 34.72 25.0473 35.1124C25.0467 35.6385 24.8374 36.1429 24.4654 36.515C24.0934 36.887 23.589 37.0962 23.0629 37.0968Z"
                  fill="white"
                />
                <path
                  d="M41.375 35.5964C41.0381 35.5965 40.7088 35.6964 40.4287 35.8835C40.1487 36.0707 39.9304 36.3367 39.8015 36.6479C39.6726 36.9591 39.6389 37.3016 39.7046 37.6319C39.7703 37.9623 39.9326 38.2658 40.1708 38.504C40.409 38.7421 40.7124 38.9043 41.0428 38.9701C41.3732 39.0358 41.7156 39.002 42.0268 38.8731C42.338 38.7442 42.604 38.5259 42.7912 38.2458C42.9783 37.9657 43.0782 37.6365 43.0782 37.2996C43.0777 36.848 42.8981 36.4151 42.5788 36.0958C42.2595 35.7765 41.8265 35.5969 41.375 35.5964Z"
                  fill="white"
                />
                <path
                  d="M23.0625 36.3781C23.7615 36.3781 24.3281 35.8114 24.3281 35.1124C24.3281 34.4134 23.7615 33.8468 23.0625 33.8468C22.3635 33.8468 21.7969 34.4134 21.7969 35.1124C21.7969 35.8114 22.3635 36.3781 23.0625 36.3781Z"
                  fill="white"
                />
                <path
                  d="M13.9651 29.6595L10.943 22.0967H9.18756C8.48745 22.0975 7.81624 22.376 7.32118 22.871C6.82613 23.3661 6.54766 24.0373 6.54688 24.7374V36.9874C6.54768 37.6875 6.82616 38.3587 7.32121 38.8538C7.81626 39.3488 8.48746 39.6273 9.18756 39.628H13.4635C12.7214 38.0532 12.379 36.3197 12.4665 34.581C12.554 32.8423 13.0687 31.1519 13.9651 29.6595ZM10.7004 37.4718C10.1047 37.4711 9.5335 37.2342 9.11222 36.8129C8.69094 36.3916 8.45396 35.8205 8.45327 35.2247V30.1126C8.45327 30.0173 8.49113 29.9259 8.55853 29.8585C8.62592 29.7911 8.71733 29.7532 8.81264 29.7532C8.90796 29.7532 8.99936 29.7911 9.06676 29.8585C9.13416 29.9259 9.17202 30.0173 9.17202 30.1126V35.2247C9.17252 35.6299 9.33371 36.0184 9.62024 36.3049C9.90677 36.5914 10.2952 36.7526 10.7004 36.753C10.7958 36.753 10.8872 36.7909 10.9546 36.8583C11.022 36.9257 11.0598 37.0171 11.0598 37.1124C11.0598 37.2077 11.022 37.2991 10.9546 37.3665C10.8872 37.4339 10.7958 37.4718 10.7004 37.4718Z"
                  fill="white"
                />
              </svg>