 <svg
                xmlns="http://www.w3.org/2000/svg"
                width="46"
                height="47"
                viewBox="0 0 46 47"
                fill="none"
              >
                <g clip-path="url(#clip0_348_295)">
                  <path
                    d="M45.9998 6.07144C45.9998 3.12271 43.6094 0.732178 40.6605 0.732178C37.7117 0.732178 35.3213 3.12262 35.3213 6.07144C35.3213 9.02026 37.7117 11.4107 40.6605 11.4107C43.6078 11.4071 45.9961 9.01873 45.9998 6.07144Z"
                    fill="white"
                  />
                  <path
                    d="M40.0625 16.4213C38.4136 16.2201 36.9085 17.3801 36.6832 19.026L35.1176 30.7896C35.0867 31.0223 34.9577 31.2305 34.7632 31.362C34.5687 31.4934 34.3273 31.5353 34.0999 31.4771L23.3959 28.7336C22.1494 28.4175 20.8419 28.9462 20.1653 30.0397L12.5754 42.1811C11.7082 43.5752 12.1308 45.408 13.5208 46.2816C13.9947 46.5753 14.5411 46.7312 15.0987 46.7317C16.125 46.7341 17.0796 46.206 17.6229 45.3353L23.7392 35.5283C23.9278 35.226 24.2897 35.0797 24.6354 35.1661L37.1464 38.2957C37.975 38.5022 38.8524 38.3418 39.5543 37.8555C40.2563 37.3692 40.7146 36.6042 40.8125 35.7559L42.6919 19.7818C42.8812 18.1313 41.7102 16.6346 40.0625 16.4213Z"
                    fill="white"
                  />
                  <path
                    d="M11.9027 11.0739C11.533 11.2955 11.1098 11.4119 10.6788 11.4107C10.5884 11.4107 10.4898 11.4025 10.3994 11.3942C10.1322 12.0796 9.72355 12.7009 9.20012 13.2178C9.1693 13.2553 9.13642 13.2909 9.10156 13.3246C9.13445 13.3575 9.16724 13.3986 9.20012 13.4314C9.67 13.9077 10.0511 14.4641 10.3255 15.0743L11.8287 15.0825C11.6051 14.5238 11.4935 13.9265 11.5001 13.3246C11.4899 12.5664 11.6707 11.8178 12.0258 11.1478L11.9027 11.0739Z"
                    fill="white"
                  />
                  <path
                    d="M19.2958 11.0739C18.9261 11.2955 18.5029 11.4119 18.0718 11.4107C17.9815 11.4107 17.8829 11.4025 17.7925 11.3942C17.5252 12.0796 17.1166 12.7009 16.5932 13.2178C16.5624 13.2553 16.5295 13.2909 16.4946 13.3246C16.5275 13.3575 16.5603 13.3986 16.5932 13.4314C17.0773 13.9232 17.4671 14.4994 17.7432 15.1318L19.2546 15.1483C18.7207 13.8551 18.7808 12.3929 19.419 11.1479L19.2958 11.0739Z"
                    fill="white"
                  />
                  <path
                    d="M0.0169326 5.70181C-0.0315825 5.94097 0.025288 6.18939 0.172989 6.38363L4.28832 12.0021C4.37242 11.7058 4.48813 11.4195 4.63332 11.1478C3.92123 10.7759 3.42979 10.086 3.31084 9.29139C3.21857 8.64551 3.38702 7.98939 3.77901 7.46785L6.2433 4.18221C6.71471 3.5711 7.44288 3.21308 8.21472 3.21308C8.98656 3.21308 9.71473 3.57101 10.1861 4.18221L11.9111 6.48218L13.6361 4.18221C14.1075 3.5711 14.8357 3.21308 15.6075 3.21308C16.3794 3.21308 17.1075 3.57101 17.5789 4.18221L19.3039 6.48218L21.0289 4.18221C21.5003 3.5711 22.2285 3.21308 23.0003 3.21308C23.7722 3.21308 24.5003 3.57101 24.9717 4.18221L27.436 7.46785C27.828 7.98939 27.9965 8.64551 27.9042 9.29139C27.8887 9.4169 27.8611 9.5407 27.8221 9.661L30.2124 6.39171C30.3654 6.19675 30.4255 5.94466 30.3768 5.70172C30.336 5.4551 30.1927 5.23732 29.9824 5.10211C20.9865 -0.724548 9.40729 -0.724548 0.411342 5.10211C0.20093 5.23741 0.0577212 5.45519 0.0169326 5.70181Z"
                    fill="white"
                  />
                  <path
                    d="M24.5609 14.1132L26.8609 10.9753C26.4496 11.2572 25.963 11.409 25.4644 11.4107C25.374 11.4107 25.2755 11.4025 25.1851 11.3942C24.9178 12.0796 24.5092 12.7009 23.9858 13.2178C23.955 13.2552 23.9221 13.2909 23.8872 13.3246C23.9201 13.3575 23.9529 13.3985 23.9858 13.4314C24.1918 13.6462 24.3839 13.874 24.5609 14.1132Z"
                    fill="white"
                  />
                  <path
                    d="M0.0629543 31.4377L4.99145 42.9375C5.11804 43.2457 5.41812 43.4469 5.75125 43.4469C6.08439 43.4469 6.38447 43.2457 6.51105 42.9375L11.4396 31.4377C11.544 31.184 11.5151 30.895 11.3624 30.6673C11.2096 30.4395 10.9532 30.303 10.6789 30.3033H8.21465V23.732C8.21465 23.2783 7.84692 22.9105 7.39322 22.9105H4.10758C3.65397 22.9105 3.28615 23.2782 3.28615 23.732V30.3033H0.821945C0.547925 30.3035 0.292053 30.4402 0.13968 30.668C-0.0126933 30.8956 -0.0414429 31.1843 0.0629543 31.4377Z"
                    fill="white"
                  />
                  <path
                    d="M9.03589 9.76781V8.12503L10.0216 9.43934C10.2938 9.80231 10.8086 9.8758 11.1715 9.60366C11.5345 9.33144 11.608 8.81664 11.3359 8.45368L8.87166 5.16786C8.71003 4.97137 8.46889 4.85754 8.21455 4.85754C7.9602 4.85754 7.71907 4.97137 7.55744 5.16786L5.09305 8.45359C4.82083 8.81655 4.89441 9.33135 5.25738 9.60357C5.62034 9.8758 6.13514 9.80222 6.40736 9.43925L7.39303 8.12494V9.76781C7.3853 10.2448 7.16402 10.6931 6.79009 10.9892C6.1284 11.586 5.7507 12.4351 5.7507 13.3261C5.7507 14.2171 6.1284 15.0664 6.79009 15.663C7.17058 15.9546 7.39374 16.4067 7.39374 16.8861C7.39374 17.3655 7.17067 17.8176 6.79009 18.1093C6.13226 18.7088 5.75519 19.5562 5.75016 20.4461C5.75016 20.8998 6.11789 21.2676 6.57159 21.2676C7.0253 21.2676 7.39303 20.8999 7.39303 20.4461C7.40066 19.9685 7.6223 19.5196 7.99677 19.223C8.65828 18.626 9.0358 17.7767 9.0358 16.8857C9.0358 15.9946 8.65828 15.1453 7.99677 14.5483C7.61628 14.2571 7.39321 13.8052 7.39321 13.326C7.39321 12.8468 7.61637 12.395 7.99677 12.1037C8.65424 11.5046 9.03104 10.6575 9.03589 9.76781Z"
                    fill="white"
                  />
                  <path
                    d="M16.429 9.76784V8.12507L17.4147 9.43937C17.5908 9.67413 17.8787 9.79713 18.1701 9.762C18.4615 9.72687 18.7119 9.53901 18.8272 9.26912C18.9425 8.99923 18.905 8.68838 18.7289 8.45362L16.2646 5.16798C16.103 4.9715 15.862 4.85767 15.6075 4.85767C15.3531 4.85767 15.112 4.9715 14.9504 5.16798L12.4861 8.45362C12.2139 8.81658 12.2875 9.33138 12.6504 9.60361C13.0134 9.87583 13.5282 9.80225 13.8004 9.43928L14.7861 8.12498V9.76784C14.7784 10.2448 14.5571 10.6931 14.1832 10.9893C13.5215 11.586 13.1438 12.4352 13.1438 13.3261C13.1438 14.2171 13.5215 15.0664 14.1832 15.663C14.5636 15.9547 14.7867 16.4068 14.7867 16.8862C14.7867 17.3656 14.5636 17.8177 14.1832 18.1093C13.5253 18.7088 13.1483 19.5562 13.1432 20.4462C13.1432 20.8998 13.511 21.2676 13.9647 21.2676C14.4184 21.2676 14.7861 20.8999 14.7861 20.4462C14.7937 19.9686 15.0154 19.5196 15.3898 19.2231C16.0513 18.6261 16.4289 17.7768 16.4289 16.8857C16.4289 15.9947 16.0513 15.1454 15.3898 14.5484C15.0094 14.2571 14.7863 13.8053 14.7863 13.3261C14.7863 12.8468 15.0094 12.395 15.3898 12.1037C16.0474 11.5046 16.4242 10.6576 16.429 9.76784Z"
                    fill="white"
                  />
                  <path
                    d="M23.8215 9.76781V8.12503L24.8072 9.43934C24.9833 9.6741 25.2712 9.7971 25.5626 9.76197C25.854 9.72684 26.1044 9.53898 26.2197 9.26909C26.335 8.9992 26.2975 8.68835 26.1214 8.45359L23.6572 5.16786C23.4956 4.97137 23.2545 4.85754 23.0001 4.85754C22.7457 4.85754 22.5046 4.97137 22.343 5.16786L19.8787 8.4535C19.6065 8.81646 19.6801 9.33126 20.043 9.60348C20.406 9.87571 20.9208 9.80213 21.193 9.43916L22.1787 8.12485V9.76772C22.1709 10.2447 21.9497 10.693 21.5757 10.9891C20.914 11.5859 20.5363 12.4351 20.5363 13.326C20.5363 14.217 20.914 15.0663 21.5757 15.6629C21.9562 15.9546 22.1793 16.4066 22.1793 16.886C22.1793 17.3654 21.9562 17.8175 21.5757 18.1092C20.9179 18.7087 20.5408 19.5561 20.5358 20.4461C20.5358 20.8997 20.9035 21.2675 21.3572 21.2675C21.8109 21.2675 22.1787 20.8998 22.1787 20.4461C22.1863 19.9685 22.4079 19.5195 22.7824 19.2229C23.4439 18.6259 23.8214 17.7767 23.8214 16.8856C23.8214 15.9945 23.4439 15.1453 22.7824 14.5482C22.4019 14.257 22.1789 13.8052 22.1789 13.3259C22.1789 12.8467 22.402 12.3949 22.7824 12.1036C23.4399 11.5046 23.8167 10.6575 23.8215 9.76781Z"
                    fill="white"
                  />
                </g>
                <defs>
                  <clipPath id="clip0_348_295">
                    <rect
                      width="46"
                      height="46"
                      fill="white"
                      transform="translate(0 0.731995)"
                    />
                  </clipPath>
                </defs>
              </svg>