 <svg
                xmlns="http://www.w3.org/2000/svg"
                width="46"
                height="47"
                viewBox="0 0 46 47"
                fill="none"
              >
                <g clip-path="url(#clip0_348_176)">
                  <path
                    d="M0.275883 7.83264C0.521172 6.81168 1.79299 6.4495 2.53919 7.19579L7.50392 12.1632H11.318V8.3491L6.35986 3.39353C5.61717 2.65084 5.97513 1.38036 6.99097 1.13157C9.3355 0.557433 13.1397 0.643149 16.081 3.58339C18.6542 6.15668 19.4809 9.99775 18.2715 13.3986L33.4435 28.5705C36.8443 27.3612 40.6854 28.1878 43.2586 30.7611C46.1249 33.6274 46.2938 37.471 45.7212 39.8546C45.4759 40.8755 44.204 41.2377 43.4578 40.4914L38.4931 35.524H34.679V39.3381L39.6359 44.2923C40.3788 45.0352 40.0205 46.3059 39.0044 46.5544C36.6608 47.1274 32.8579 47.0446 29.9162 44.1037C27.3429 41.5304 26.5163 37.6894 27.7256 34.2886L12.5536 19.1166C9.15284 20.326 5.31267 19.4993 2.73848 16.926C-0.127901 14.0598 -0.296728 10.2163 0.275883 7.83264Z"
                    fill="white"
                  />
                  <path
                    d="M22.9986 33.374L11.5006 44.8711C9.19951 47.1722 5.63428 47.4588 3.01966 45.7283L13.4072 35.3417C13.9328 34.8152 13.9328 33.9616 13.4072 33.4351C12.8807 32.9095 12.0271 32.9095 11.5006 33.4351L1.11395 43.8226C-0.616549 41.208 -0.330828 37.6427 1.97112 35.3417L13.4683 23.8436L22.9986 33.374Z"
                    fill="white"
                  />
                  <path
                    d="M45.8582 4.6985L42.0459 12.3222C41.8483 12.7185 41.4691 12.9916 41.0306 13.0545L34.8049 13.9431L28.7167 20.0313L26.811 18.1256L32.8983 12.0383L33.7879 5.81174C33.8507 5.37327 34.1239 4.99411 34.5201 4.79644L42.1439 0.984122C42.6623 0.725355 43.2894 0.826885 43.6992 1.2366L45.6058 3.14321C46.0155 3.55292 46.117 4.18007 45.8582 4.6985Z"
                    fill="white"
                  />
                </g>
                <defs>
                  <clipPath id="clip0_348_176">
                    <rect
                      width="46"
                      height="46"
                      fill="white"
                      transform="translate(0 0.842072)"
                    />
                  </clipPath>
                </defs>
              </svg>