<svg
                xmlns="http://www.w3.org/2000/svg"
                width="46"
                height="47"
                viewBox="0 0 46 47"
                fill="none"
              >
                <g clip-path="url(#clip0_348_255)">
                  <path
                    d="M13.8959 4.10626V8.99376L12.6237 8.78164C11.5329 8.59971 10.7334 7.6559 10.7334 6.55001C10.7334 5.4497 11.5274 4.50122 12.6237 4.31838L13.8959 4.10626Z"
                    fill="white"
                  />
                  <path
                    d="M30.6662 3.86636V9.23362C30.6662 10.9253 29.2943 12.3 27.5999 12.3C27.1515 12.3 26.7643 12.6108 26.6673 13.0484L25.396 18.7687H20.6037L19.3324 13.0484C19.237 12.6189 18.8572 12.3 18.3999 12.3C16.7063 12.3 15.3335 10.9272 15.3335 9.23362V3.86636C15.3335 2.1728 16.7063 0.799988 18.3999 0.799988H27.5999C29.2934 0.799988 30.6662 2.1728 30.6662 3.86636Z"
                    fill="white"
                  />
                  <path
                    d="M25.3002 21.6437V26.1C25.3002 27.3704 24.2706 28.4 23.0002 28.4C21.7298 28.4 20.7002 27.3705 20.7002 26.1V21.6437H25.3002Z"
                    fill="white"
                  />
                  <path
                    d="M29.2286 36.4464C29.2286 37.5638 28.3218 38.4625 27.2126 38.4625H18.787C17.6747 38.4625 16.7709 37.5577 16.7709 36.4464C16.7709 36.1272 16.6753 36.6531 18.4654 28.5985C20.4181 32.1546 25.555 32.1749 27.5333 28.5931C29.3258 36.6601 29.2286 36.1275 29.2286 36.4464Z"
                    fill="white"
                  />
                  <path
                    d="M38.3338 29.9336V40.6664C38.3338 44.0544 35.5881 46.8 32.2001 46.8H13.8001C10.4121 46.8 7.6665 44.0544 7.6665 40.6664V29.9336C7.6665 26.5456 10.4121 23.8 13.8001 23.8H17.1863C16.6167 24.5861 16.2133 25.4828 15.9995 26.4459C13.8727 36.016 13.8963 35.6836 13.8963 36.4464C13.8963 39.1435 16.0903 41.3375 18.7874 41.3375H27.2129C29.9159 41.3375 32.104 39.1487 32.104 36.4464C32.104 35.7062 32.1699 36.2018 30.0008 26.4459C29.7869 25.4819 29.3835 24.5861 28.813 23.8H32.2001C35.5881 23.8 38.3338 26.5456 38.3338 29.9336Z"
                    fill="white"
                  />
                </g>
                <defs>
                  <clipPath id="clip0_348_255">
                    <rect
                      width="46"
                      height="46"
                      fill="white"
                      transform="translate(0 0.799988)"
                    />
                  </clipPath>
                </defs>
              </svg>