  <svg
                xmlns="http://www.w3.org/2000/svg"
                width="46"
                height="47"
                viewBox="0 0 46 47"
                fill="none"
              >
                <g clip-path="url(#clip0_348_265)">
                  <path
                    d="M40.5884 0.816223V3.52211H37.8825V0.816223H35.1766V7.58093C35.1766 9.34471 36.3078 10.8486 37.8825 11.407V20.55L35.9692 22.4633H33.7393C31.8888 9.9162 14.1067 9.92522 12.261 22.4633H10.0311L8.11782 20.55V11.407C9.69246 10.8486 10.8237 9.34471 10.8237 7.58093C10.8237 4.43002 10.8237 3.73849 10.8237 0.816223H8.11782V3.52211H5.41194V0.816223H2.70605V7.58093C2.70605 9.34471 3.8372 10.8486 5.41194 11.407V21.6707L7.55743 23.8162L5.41194 25.9617V36.2254C3.8372 36.7839 2.70605 38.2877 2.70605 40.0515V46.8162H5.41194V44.1103H8.11782V46.8162H10.8237C10.8237 43.9143 10.8237 43.2225 10.8237 40.0515C10.8237 38.2877 9.69246 36.7839 8.11782 36.2254V27.0825L10.0311 25.1692H12.2611C14.1115 37.7163 31.8934 37.7072 33.7394 25.1692H35.9693L37.8825 27.0825V36.2254C36.3078 36.7839 35.1766 38.2877 35.1766 40.0515V46.8162H37.8825V44.1103H40.5884V46.8162H43.2943C43.2943 43.9143 43.2943 43.2225 43.2943 40.0515C43.2943 38.2877 42.1631 36.7839 40.5884 36.2254V25.9617L38.4429 23.8162L40.5884 21.6707V11.407C42.1631 10.8486 43.2943 9.34471 43.2943 7.58093C43.2943 4.43002 43.2943 3.73849 43.2943 0.816223L40.5884 0.816223ZM21.98 29.182L19.9615 27.3799L22.1655 24.9116L19.4595 23.5585L24.0203 18.4505L26.0388 20.2526L23.8348 22.721L26.5407 24.0738L21.98 29.182Z"
                    fill="white"
                  />
                </g>
                <defs>
                  <clipPath id="clip0_348_265">
                    <rect
                      width="46"
                      height="46"
                      fill="white"
                      transform="translate(0 0.816223)"
                    />
                  </clipPath>
                </defs>
              </svg>