 <svg
                xmlns="http://www.w3.org/2000/svg"
                width="46"
                height="47"
                viewBox="0 0 46 47"
                fill="none"
              >
                <g clip-path="url(#clip0_348_203)">
                  <path
                    d="M20.9093 0.867905C20.3314 0.867905 19.8638 1.33552 19.8638 1.91339V9.52457C19.8638 11.5481 21.2523 13.2684 23.1656 13.6156C28.2714 14.5426 32.3255 18.5968 33.2526 23.7026C33.5998 25.6159 35.3201 27.0043 37.3436 27.0043H44.9548C45.5327 27.0043 46.0003 26.5367 46.0003 25.9588C46.0002 12.1239 34.7443 0.867905 20.9093 0.867905ZM38.4482 22.8847C38.3666 22.9031 38.2859 22.9122 38.2062 22.9122C37.7325 22.9122 37.3037 22.5886 37.1893 22.1078C35.7457 16.0015 30.8676 11.1233 24.7602 9.67766C24.1987 9.54496 23.8506 8.98237 23.9843 8.41988C24.117 7.8573 24.6694 7.50612 25.242 7.64393C32.1121 9.26925 37.6007 14.7569 39.225 21.6258C39.3579 22.1884 39.0097 22.751 38.4482 22.8847Z"
                    fill="white"
                  />
                  <path
                    d="M40.3236 29.0952H37.3433C34.308 29.0952 31.722 26.9838 31.1962 24.0742C30.4223 19.8209 27.045 16.4446 22.7907 15.6718C19.883 15.1459 17.7727 12.5599 17.7727 9.52458V6.54444C17.7727 6.22894 17.6298 5.92981 17.3848 5.73173C17.1377 5.53159 16.8161 5.45298 16.5078 5.52247C6.94244 7.57356 0 16.1679 0 25.9588C0 37.4884 9.3795 46.8679 20.9091 46.8679C30.7 46.8679 39.2943 39.9255 41.3454 30.3601C41.4118 30.0508 41.3352 29.7291 41.1362 29.4831C40.9382 29.2381 40.639 29.0952 40.3236 29.0952ZM11.5 13.4134C13.2295 13.4134 14.6363 14.8202 14.6363 16.5497C14.6363 18.2793 13.2295 19.6861 11.5 19.6861C9.77047 19.6861 8.36361 18.2793 8.36361 16.5497C8.36361 14.8202 9.77047 13.4134 11.5 13.4134ZM11.5 38.5043C9.77047 38.5043 8.36361 37.0974 8.36361 35.3679C8.36361 33.6384 9.77047 32.2316 11.5 32.2316C13.2295 32.2316 14.6363 33.6384 14.6363 35.3679C14.6363 37.0974 13.2295 38.5043 11.5 38.5043ZM20.9091 32.2316C17.4501 32.2316 14.6363 29.4179 14.6363 25.9588C14.6363 22.4998 17.4501 19.6861 20.9091 19.6861C24.3681 19.6861 27.1818 22.4998 27.1818 25.9588C27.1818 29.4179 24.3681 32.2316 20.9091 32.2316ZM30.3182 38.5043C28.5887 38.5043 27.1818 37.0974 27.1818 35.3679C27.1818 33.6384 28.5887 32.2316 30.3182 32.2316C32.0477 32.2316 33.4545 33.6384 33.4545 35.3679C33.4545 37.0974 32.0477 38.5043 30.3182 38.5043Z"
                    fill="white"
                  />
                </g>
                <defs>
                  <clipPath id="clip0_348_203">
                    <rect
                      width="46"
                      height="46"
                      fill="white"
                      transform="translate(0 0.867905)"
                    />
                  </clipPath>
                </defs>
              </svg>