  <svg
                xmlns="http://www.w3.org/2000/svg"
                width="46"
                height="47"
                viewBox="0 0 46 47"
                fill="none"
              >
                <path
                  d="M21.5624 10.1601C19.3645 10.1601 17.3022 10.7404 15.5203 11.7561L13.3892 8.00944C15.8725 6.59695 18.7066 5.85179 21.5624 5.84766H21.5634C24.4192 5.85179 27.2533 6.59695 29.7366 8.00944L27.6055 11.7561C25.8235 10.7404 23.7612 10.1601 21.5633 10.1601H21.5624Z"
                  fill="white"
                />
                <path
                  fill-rule="evenodd"
                  clip-rule="evenodd"
                  d="M21.5625 38.91C12.4325 38.91 5.03125 31.5087 5.03125 22.3788C5.03125 16.7376 7.85684 11.7564 12.1699 8.77319L14.3134 12.5417C12.0516 14.2113 10.3861 16.6423 9.69543 19.4563C9.60803 19.8125 10.0156 20.1219 10.3823 20.1219H13.9891C14.3971 20.1219 14.793 19.983 15.1116 19.7282L16.9413 18.2644C17.5785 17.7546 18.3702 17.4769 19.1862 17.4769H23.9397C24.7558 17.4769 25.5475 17.7546 26.1847 18.2644L28.0144 19.7282C28.333 19.983 28.7289 20.1219 29.1369 20.1219H32.7436C33.1104 20.1219 33.5179 19.8125 33.4305 19.4563C32.7399 16.6423 31.0744 14.2113 28.8125 12.5417L30.956 8.77319C35.2691 11.7564 38.0948 16.7376 38.0948 22.3788C38.0948 23.0216 38.0582 23.6559 37.9867 24.2796C36.2897 23.0821 34.2192 22.3787 31.9844 22.3787C26.2285 22.3787 21.5625 27.0447 21.5625 32.8006C21.5625 35.0351 22.2657 37.1052 23.4629 38.8021C22.8396 38.8733 22.2058 38.91 21.5635 38.91H21.5625ZM10.3823 25.9869C10.1564 25.9869 9.9507 26.1993 10.0253 26.4125C11.2699 29.9726 14.1157 32.781 17.6995 33.9743C18.0073 34.0768 18.6444 33.1394 18.6444 32.815V26.7056C18.6444 26.3087 18.3226 25.9869 17.9256 25.9869H10.3823ZM21.5625 23.8162C22.3564 23.8162 23 23.1726 23 22.3787C23 21.5848 22.3564 20.9412 21.5625 20.9412C20.7686 20.9412 20.125 21.5848 20.125 22.3787C20.125 23.1726 20.7686 23.8162 21.5625 23.8162Z"
                  fill="white"
                />
                <path
                  fill-rule="evenodd"
                  clip-rule="evenodd"
                  d="M31.9844 41.785C36.9463 41.785 40.9688 37.7625 40.9688 32.8006C40.9688 27.8387 36.9463 23.8162 31.9844 23.8162C27.0224 23.8162 23 27.8387 23 32.8006C23 37.7625 27.0224 41.785 31.9844 41.785ZM31.7377 29.058C32.0184 28.7773 32.4735 28.7773 32.7542 29.058C33.0349 29.3387 33.0349 29.7937 32.7542 30.0745L32.246 30.5827C31.6846 31.1441 31.6846 32.0542 32.246 32.6156C32.8073 33.177 33.7175 33.177 34.2789 32.6156L34.7871 32.1074C35.0678 31.8267 35.5229 31.8267 35.8036 32.1074C36.0841 32.3881 36.0841 32.8431 35.8036 33.1238L35.2954 33.6321C34.3481 34.5793 32.9043 34.7274 31.8018 34.0763L29.7048 36.1732C29.4241 36.4539 28.969 36.4539 28.6883 36.1732C28.4077 35.8926 28.4077 35.4374 28.6883 35.1568L30.7853 33.0598C30.1342 31.9573 30.2822 30.5135 31.2295 29.5662L31.7377 29.058Z"
                  fill="white"
                />
              </svg>