
<svg
    xmlns="http://www.w3.org/2000/svg"
    width="16"
    height="17"
    viewBox="0 0 16 17"
    fill="none"
>
    <g clip-path="url(#clip0_147_83)">
    <path
        d="M8 0.273438C3.58866 0.273438 0 3.86209 0 8.27344C0 12.6848 3.58866 16.2734 8 16.2734C12.4113 16.2734 16 12.6848 16 8.27344C16 3.86209 12.4113 0.273438 8 0.273438ZM10.4713 8.74478L7.138 12.0781C7.008 12.2081 6.83734 12.2734 6.66666 12.2734C6.496 12.2734 6.32531 12.2081 6.19531 12.0781C5.93466 11.8174 5.93466 11.3961 6.19531 11.1354L9.05734 8.27344L6.19534 5.41144C5.93469 5.15078 5.93469 4.72944 6.19534 4.46878C6.456 4.20813 6.87734 4.20813 7.138 4.46878L10.4713 7.80212C10.732 8.06278 10.732 8.48409 10.4713 8.74478Z"
        fill="white"
    />
    </g>
    <defs>
    <clipPath id="clip0_147_832">
        <rect
        width="16"
        height="16"
        fill="white"
        transform="translate(0 0.273438)"
        />
    </clipPath>
    </defs>
</svg>