<?xml version="1.0" encoding="UTF-8"?>
<svg id="Layer_1" xmlns="http://www.w3.org/2000/svg" version="1.1" xmlns:xlink="http://www.w3.org/1999/xlink" viewBox="0 0 282 198">
  <!-- Generator: Adobe Illustrator 29.2.1, SVG Export Plug-In . SVG Version: 2.1.0 Build 116)  -->
  <defs>
    <style>
      .st0 {
        fill: url(#Adsız_degrade_6);
      }

      .st1 {
        fill: url(#Adsız_degrade_3);
      }

      .st2 {
        fill: #544c45;
      }

      .st3, .st4 {
        fill: #fff;
      }

      .st5 {
        fill: url(#Adsız_degrade_4);
      }

      .st6 {
        fill: url(#Adsız_degrade_9);
      }

      .st7 {
        fill: url(#Adsız_degrade_11);
      }

      .st8 {
        fill: none;
      }

      .st9 {
        fill: #968d86;
      }

      .st10 {
        fill: url(#Adsız_degrade);
      }

      .st11 {
        fill: url(#Adsız_degrade_7);
      }

      .st12 {
        fill: url(#Adsız_degrade_8);
      }

      .st13 {
        fill: url(#Adsız_degrade_10);
      }

      .st14 {
        fill: url(#Adsız_degrade_5);
      }

      .st15 {
        fill: url(#Adsız_degrade_2);
      }

      .st16 {
        fill-rule: evenodd;
      }

      .st4, .st17 {
        stroke: #4c4642;
        stroke-miterlimit: 8;
        stroke-width: .9px;
      }

      .st18 {
        clip-path: url(#clippath);
      }

      .st17 {
        fill: #514a44;
      }
    </style>
    <clipPath id="clippath">
      <rect class="st8" x="58" y="27.6" width="165.9" height="113.7"/>
    </clipPath>
    <linearGradient id="Adsız_degrade" data-name="Adsız degrade" x1="176.2" y1="540.3" x2="258" y2="510.6" gradientTransform="translate(-133 -441)" gradientUnits="userSpaceOnUse">
      <stop offset="0" stop-color="#7b7269"/>
      <stop offset=".4" stop-color="#7b7269"/>
      <stop offset=".4" stop-color="#675f5a"/>
      <stop offset=".6" stop-color="#c9c0b9"/>
      <stop offset="1" stop-color="#c9c0b9"/>
    </linearGradient>
    <linearGradient id="Adsız_degrade_2" data-name="Adsız degrade 2" x1="217.1" y1="581.9" x2="217.1" y2="468.9" gradientTransform="translate(-133 -441)" gradientUnits="userSpaceOnUse">
      <stop offset="0" stop-color="#675f5a" stop-opacity=".3"/>
      <stop offset="0" stop-color="#675f5a" stop-opacity=".3"/>
      <stop offset=".3" stop-color="#aba6a2" stop-opacity="0"/>
      <stop offset=".6" stop-color="#b9b5b2" stop-opacity="0"/>
      <stop offset=".8" stop-color="#fff" stop-opacity=".2"/>
      <stop offset="1" stop-color="#fff" stop-opacity=".2"/>
    </linearGradient>
    <linearGradient id="Adsız_degrade_3" data-name="Adsız degrade 3" x1="184.9" y1="533.5" x2="277.4" y2="480.1" gradientTransform="translate(-133 -441)" gradientUnits="userSpaceOnUse">
      <stop offset="0" stop-color="#514a44"/>
      <stop offset=".4" stop-color="#514a44"/>
      <stop offset=".6" stop-color="#c6c4c2"/>
      <stop offset=".6" stop-color="#fff"/>
      <stop offset="1" stop-color="#fff"/>
    </linearGradient>
    <linearGradient id="Adsız_degrade_4" data-name="Adsız degrade 4" x1="189.1" y1="542" x2="273.1" y2="471.6" gradientTransform="translate(-133 -441)" gradientUnits="userSpaceOnUse">
      <stop offset="0" stop-color="#514a44" stop-opacity=".8"/>
      <stop offset=".5" stop-color="#514a44" stop-opacity=".8"/>
      <stop offset=".6" stop-color="#c6c4c2" stop-opacity="0"/>
      <stop offset="1" stop-color="#c6c4c2" stop-opacity="0"/>
    </linearGradient>
    <linearGradient id="Adsız_degrade_5" data-name="Adsız degrade 5" x1="176.2" y1="540.3" x2="282.8" y2="501.5" gradientTransform="translate(-133 -441)" gradientUnits="userSpaceOnUse">
      <stop offset="0" stop-color="#5e5751"/>
      <stop offset=".4" stop-color="#5e5751"/>
      <stop offset=".5" stop-color="#57504a"/>
      <stop offset=".6" stop-color="#776e69"/>
      <stop offset=".7" stop-color="#aca09a"/>
      <stop offset="1" stop-color="#aca09a"/>
    </linearGradient>
    <linearGradient id="Adsız_degrade_6" data-name="Adsız degrade 6" x1="208.3" y1="551.5" x2="278" y2="526.1" gradientTransform="translate(-133 -441)" gradientUnits="userSpaceOnUse">
      <stop offset="0" stop-color="#988d8a"/>
      <stop offset=".1" stop-color="#988d8a"/>
      <stop offset=".3" stop-color="#b4aaa5"/>
      <stop offset=".6" stop-color="#c0b6b0"/>
      <stop offset=".9" stop-color="#cec5be"/>
      <stop offset="1" stop-color="#cec5be"/>
    </linearGradient>
    <linearGradient id="Adsız_degrade_7" data-name="Adsız degrade 7" x1="336" y1="501.5" x2="256.2" y2="527.4" gradientTransform="translate(494 -430) rotate(-180) scale(1 -1)" gradientUnits="userSpaceOnUse">
      <stop offset="0" stop-color="#3d3731"/>
      <stop offset=".4" stop-color="#3d3731"/>
      <stop offset=".5" stop-color="#5a524c"/>
      <stop offset=".6" stop-color="#887f7a"/>
      <stop offset=".6" stop-color="#c7c0b6"/>
      <stop offset="1" stop-color="#c7c0b6"/>
    </linearGradient>
    <linearGradient id="Adsız_degrade_8" data-name="Adsız degrade 8" x1="268.1" y1="531" x2="352.1" y2="460.6" gradientTransform="translate(494 -430) rotate(-180) scale(1 -1)" gradientUnits="userSpaceOnUse">
      <stop offset="0" stop-color="#645c57"/>
      <stop offset=".5" stop-color="#645c57"/>
      <stop offset=".5" stop-color="#716863"/>
      <stop offset=".6" stop-color="#9d928c"/>
      <stop offset=".6" stop-color="#fff"/>
      <stop offset="1" stop-color="#fff"/>
    </linearGradient>
    <linearGradient id="Adsız_degrade_9" data-name="Adsız degrade 9" x1="259.6" y1="561.9" x2="348.1" y2="456.4" gradientTransform="translate(494 -430) rotate(-180) scale(1 -1)" gradientUnits="userSpaceOnUse">
      <stop offset="0" stop-color="#918883"/>
      <stop offset=".2" stop-color="#918883"/>
      <stop offset=".3" stop-color="#4c433e"/>
      <stop offset=".3" stop-color="#544b48"/>
      <stop offset=".5" stop-color="#79706a"/>
      <stop offset="1" stop-color="#79706a"/>
    </linearGradient>
    <linearGradient id="Adsız_degrade_10" data-name="Adsız degrade 10" x1="117.3" y1="315.7" x2="187.1" y2="290.3" gradientTransform="translate(324 -205) rotate(-180) scale(1 -1)" gradientUnits="userSpaceOnUse">
      <stop offset="0" stop-color="#a19891"/>
      <stop offset=".2" stop-color="#a19891"/>
      <stop offset=".6" stop-color="#948983"/>
      <stop offset="1" stop-color="#948983"/>
    </linearGradient>
    <linearGradient id="Adsız_degrade_11" data-name="Adsız degrade 11" x1="297" y1="456" x2="268" y2="490.6" gradientTransform="translate(492 -427) rotate(-180) scale(1 -1)" gradientUnits="userSpaceOnUse">
      <stop offset="0" stop-color="#fff"/>
      <stop offset=".3" stop-color="#fff"/>
      <stop offset=".4" stop-color="#fff"/>
      <stop offset=".7" stop-color="#9c8f8c"/>
      <stop offset="1" stop-color="#9c8f8c"/>
    </linearGradient>
  </defs>
  <g class="st18">
    <g>
      <path class="st4" d="M138,94.2v21.2l-28.1,25.6h-16c-12.6-37.1-24.7-73.9-35.7-111.9l.2-1.1,79.5,66.2Z"/>
      <path class="st10" d="M86.2,64.3c8.6,18.8,22.3,63.9,23.6,76.6h-16c-7-18.8-28.9-93.4-35.5-113l27.9,36.4Z"/>
      <path class="st15" d="M86.2,64.3c8.6,18.8,22.3,63.9,23.6,76.6h-16c-7-18.8-29.4-93.1-35.5-113l27.9,36.4Z"/>
      <path class="st1" d="M137.9,94.1q0,4.8,0,9.6c-8.7-5-38.7-26.9-51.9-39.5l-27.5-36.2,79.6,66.2Z"/>
      <path class="st5" d="M137.9,94.1q0,4.8,0,9.6c-8.7-5-38.7-26.9-51.9-39.5l-27.5-36.2,79.6,66.2Z"/>
      <path class="st14" d="M101.6,101.3l36.4,2.5v11.5l-28.1,25.6h-16l-8.3-76.9-26.2-34.1-.9-2,27.7,35.9,15.6,37.4Z"/>
      <path class="st0" d="M94.6,140.1h14.3l28.7-36-51.4-39.4,8.4,75.4Z"/>
      <path class="st3" d="M86.1,64l51.4,39.4v.8l-51.2-39.3-.2-.9Z"/>
      <path class="st17" d="M144.2,94.2v21.2l28.1,25.6h15.9c12.6-37.1,24.7-73.9,35.7-111.9l-.2-1.1-79.5,66.2Z"/>
      <path class="st11" d="M195.8,64.3c-8.6,18.8-22.3,63.9-23.6,76.6h16c7-18.8,30-91.8,35.5-113l-27.9,36.4Z"/>
      <path class="st12" d="M144.1,94.1q0,4.8,0,9.6c8.7-5,38.7-26.9,51.9-39.5l27.5-36.2-79.6,66.2Z"/>
      <path class="st6" d="M180.5,101.3l-36.4,2.5v11.5l28.1,25.6h16l8.3-76.9,26.3-34.1.9-2-27.7,35.9-15.6,37.4Z"/>
      <path class="st3" d="M195.9,63.9l-51.4,39.6v.8l51.2-39.4.3-.9Z"/>
      <path class="st9" d="M195.8,64.2h.6l-.2.3-8.2,75.3h-15.8l7.9-38,15.6-37.5v-.2Z"/>
      <path class="st13" d="M187.5,140.6h-14.3l-28.7-36.1,51.4-39.7-8.4,75.9Z"/>
      <path class="st7" d="M223.3,28.4l-.9,2-26.1,33.8h-.6l27.6-35.8Z"/>
      <path class="st2" d="M172.4,140.1h15.8l-.2.8h-16l.4-.8Z"/>
    </g>
  </g>
  <rect class="st8" x="52.7" y="22.4" width="176.6" height="124"/>
  <g>
    <path class="st16" d="M82.5,157h13.9c3.2,0,5.8,2.5,5.8,5.6v12.9h-20.8c-1.9,0-3.5-1.5-3.5-3.4v-4.5c0-1.8,1.5-3.2,3.3-3.2h11.6l-1.2,2.6h-8.5c-.4,0-.8.3-.8.7v3.5c0,.4.4.7.8.7h14.8v-8.4c0-1.6-1.4-2.9-3-2.9h-13.8l1.7-3.6ZM197,150.3v25.2h-20.3c-1.9,0-3.5-1.5-3.5-3.4v-9.5c0-3.1,2.6-5.6,5.8-5.6h11.6l-1.7,3.6h-8.1c-1.6,0-3,1.3-3,2.9v7.8c0,.4.4.7.8.7h14v-21.6h4.5ZM125.7,175.6h4.5v-12.9c0-3.1-2.6-5.6-5.8-5.6h-9.6l-1.7,3.6h9.5c1.6,0,3,1.3,3,2.9v12ZM106.9,150.3v25.2h4.5v-25.2h-4.5ZM69.4,175.6h4.5v-12.9c0-3.1-2.6-5.6-5.8-5.6h-29.5v18.5h4.5v-14.2c0-.4.4-.7.8-.7h9.3c.4,0,.8.3.8.7v14.2h4.5v-14.2c0-.4.4-.7.8-.7h7.1c1.6,0,3,1.3,3,2.9v12ZM220.5,157h-11.3c-3.2,0-5.8,2.5-5.8,5.6v12.9h4.5v-12c0-1.6,1.4-2.9,3-2.9h7.8l1.7-3.6ZM162.9,157c3.2,0,5.8,2.5,5.8,5.6v12.9h-4.5v-12c0-1.6-1.4-2.9-3-2.9h-10.8v14.9h-4.5v-18.5c5.7,0,11.4,0,17.1,0ZM135.7,158.2l4.5-2.6v19.9h-4.5v-17.3ZM140.3,153v-2.7h-4.5v5.3l4.5-2.6ZM223.7,157h13.9c3.2,0,5.8,2.5,5.8,5.6v12.9h-20.8c-1.9,0-3.5-1.5-3.5-3.4v-4.5c0-1.8,1.5-3.2,3.3-3.2h11.6l-1.2,2.6h-8.5c-.4,0-.8.3-.8.7v3.5c0,.4.4.7.8.7h14.8v-8.4c0-1.6-1.4-2.9-3-2.9h-13.8l1.7-3.6Z"/>
    <path class="st16" d="M82.5,157h13.9c3.2,0,5.8,2.5,5.8,5.6v12.9h-20.8c-1.9,0-3.5-1.5-3.5-3.4v-4.5c0-1.8,1.5-3.2,3.3-3.2h11.6l-1.2,2.6h-8.5c-.4,0-.8.3-.8.7v3.5c0,.4.4.7.8.7h14.8v-8.4c0-1.6-1.4-2.9-3-2.9h-13.8l1.7-3.6ZM197,150.3v25.2h-20.3c-1.9,0-3.5-1.5-3.5-3.4v-9.5c0-3.1,2.6-5.6,5.8-5.6h11.6l-1.7,3.6h-8.1c-1.6,0-3,1.3-3,2.9v7.8c0,.4.4.7.8.7h14v-21.6h4.5ZM125.7,175.6h4.5v-12.9c0-3.1-2.6-5.6-5.8-5.6h-9.6l-1.7,3.6h9.5c1.6,0,3,1.3,3,2.9v12ZM106.9,150.3v25.2h4.5v-25.2h-4.5ZM69.4,175.6h4.5v-12.9c0-3.1-2.6-5.6-5.8-5.6h-29.5v18.5h4.5v-14.2c0-.4.4-.7.8-.7h9.3c.4,0,.8.3.8.7v14.2h4.5v-14.2c0-.4.4-.7.8-.7h7.1c1.6,0,3,1.3,3,2.9v12ZM220.5,157h-11.3c-3.2,0-5.8,2.5-5.8,5.6v12.9h4.5v-12c0-1.6,1.4-2.9,3-2.9h7.8l1.7-3.6ZM162.9,157c3.2,0,5.8,2.5,5.8,5.6v12.9h-4.5v-12c0-1.6-1.4-2.9-3-2.9h-10.8v14.9h-4.5v-18.5c5.7,0,11.4,0,17.1,0ZM135.7,158.2l4.5-2.6v19.9h-4.5v-17.3ZM140.3,153v-2.7h-4.5v5.3l4.5-2.6ZM223.7,157h13.9c3.2,0,5.8,2.5,5.8,5.6v12.9h-20.8c-1.9,0-3.5-1.5-3.5-3.4v-4.5c0-1.8,1.5-3.2,3.3-3.2h11.6l-1.2,2.6h-8.5c-.4,0-.8.3-.8.7v3.5c0,.4.4.7.8.7h14.8v-8.4c0-1.6-1.4-2.9-3-2.9h-13.8l1.7-3.6Z"/>
  </g>
</svg>